<svg width="52" height="51" xmlns="http://www.w3.org/2000/svg" xmlns:xlink="http://www.w3.org/1999/xlink" xml:space="preserve" overflow="hidden"><defs><clipPath id="clip0"><rect x="31" y="260" width="52" height="51"/></clipPath></defs><g clip-path="url(#clip0)" transform="translate(-31 -260)"><path d="M12.5375 32.7872 11.2094 36.7715 14.2375 39.7997 18.2219 38.4715C19.2789 39.0628 20.4024 39.5264 21.5687 39.8528L23.4281 43.5715 27.6781 43.5715 29.5375 39.8528C30.6902 39.5359 31.7973 39.0716 32.8312 38.4715L36.8156 39.7997 39.8438 36.7715 38.5156 32.7872C39.1066 31.73 39.5703 30.6065 39.8969 29.4403L43.6156 27.5809 43.6156 23.3309 39.8438 21.5247C39.5266 20.372 39.0623 19.265 38.4625 18.2309L39.7906 14.2465 36.7625 11.2184 32.7781 12.5465C31.7211 11.9553 30.5976 11.4916 29.4313 11.1653L27.625 7.4375 23.375 7.4375 21.5156 11.1562C20.3629 11.4731 19.2558 11.9374 18.2219 12.5375L14.2375 11.2094 11.2094 14.2375 12.5375 18.2219C11.9465 19.279 11.4829 20.4025 11.1562 21.5687L7.4375 23.375 7.4375 27.625 11.1562 29.4844C11.4727 30.6401 11.9369 31.7502 12.5375 32.7872ZM8.5 24.0465 11.6206 22.5303 12.0546 22.3178 12.1816 21.8524C12.4866 20.7668 12.9186 19.721 13.4688 18.7367L13.6924 18.3297 13.5458 17.8888 12.4249 14.5265 14.5249 12.4259 17.8861 13.5469 18.3403 13.6983 18.7547 13.4582C19.7093 12.9041 20.7313 12.4755 21.7956 12.1832L22.2541 12.0583 22.4666 11.6333 24.0327 8.5 26.9609 8.5 28.475 11.6237 28.6875 12.0572 29.1529 12.1842C30.2381 12.4897 31.2835 12.9219 32.2676 13.472L32.6751 13.6962 33.116 13.549 36.4772 12.4281 38.5772 14.5286 37.4563 17.8909 37.3049 18.3451 37.545 18.759C38.0994 19.7137 38.528 20.7362 38.82 21.8009L38.9481 22.27 39.3863 22.4798 42.5531 23.9976 42.5531 26.9232 39.4214 28.4893 38.9964 28.7018 38.8716 29.1598C38.5665 30.2453 38.1344 31.2912 37.5843 32.2756L37.3607 32.6825 37.5073 33.1234 38.6283 36.4857 36.5282 38.5863 33.167 37.4653 32.7128 37.3139 32.2984 37.5541C31.3438 38.1083 30.3215 38.5368 29.257 38.8291L28.7991 38.9539 28.5866 39.3789 27.0204 42.5133 24.0858 42.5133 22.5202 39.3789 22.3077 38.9539 21.8492 38.8291C20.7642 38.5236 19.7189 38.0914 18.7351 37.5413L18.3276 37.3171 17.8867 37.4643 14.5254 38.5852 12.4254 36.4847 13.5469 33.1234 13.6978 32.6692 13.4582 32.2548C12.9036 31.3001 12.4751 30.2777 12.1832 29.2129L12.0578 28.755 11.6328 28.5425 8.5 26.9763Z" transform="matrix(1.01961 0 0 1 31 260)"/><path d="M25.5 31.884C29.0208 31.884 31.875 29.0298 31.875 25.509 31.875 21.9882 29.0208 19.134 25.5 19.134 21.9792 19.134 19.125 21.9882 19.125 25.509 19.1361 29.0253 21.9838 31.8729 25.5 31.884ZM25.5 20.1928C28.434 20.1928 30.8125 22.5713 30.8125 25.5053 30.8125 28.4393 28.434 30.8178 25.5 30.8178 22.566 30.8178 20.1875 28.4393 20.1875 25.5053 20.1913 22.5729 22.5676 20.1966 25.5 20.1928Z" transform="matrix(1.01961 0 0 1 31 260)"/></g></svg>