<svg width="52" height="52" xmlns="http://www.w3.org/2000/svg" xmlns:xlink="http://www.w3.org/1999/xlink" xml:space="preserve" overflow="hidden"><defs><clipPath id="clip0"><rect x="32" y="75" width="52" height="52"/></clipPath></defs><g clip-path="url(#clip0)" transform="translate(-32 -75)"><path d="M35.5571 103.144 39.072 106.658 41.75 104.122 41.75 121.57 55.2917 121.576 55.2917 108.051 60.7083 108.051 60.7083 121.578 74.25 121.583 74.25 104.099 76.9415 106.645 80.4429 103.144 58 81.825ZM73.1667 120.5 61.7917 120.495 61.7917 106.968 54.2083 106.968 54.2083 120.492 42.8333 120.488 42.8333 103.096 58 88.7334 73.1667 103.075ZM39.0926 105.147 37.1095 103.167 58 83.3178 78.8905 103.167 76.9204 105.134 58 87.2417Z"/></g></svg>