<svg width="51" height="52" xmlns="http://www.w3.org/2000/svg" xmlns:xlink="http://www.w3.org/1999/xlink" xml:space="preserve" overflow="hidden"><defs><clipPath id="clip0"><rect x="34" y="619" width="51" height="52"/></clipPath></defs><g clip-path="url(#clip0)" transform="translate(-34 -619)"><path d="M25.5 46.2188C36.0624 46.2207 44.6266 37.6597 44.6286 27.0973 44.6297 20.8374 41.5672 14.9731 36.4294 11.3969L35.8211 12.2687C44.0078 17.9689 46.0234 29.2264 40.3233 37.4131 34.6231 45.5997 23.3655 47.6154 15.1789 41.9151 6.99221 36.2149 4.97656 24.9574 10.6767 16.7708 11.899 15.0154 13.4234 13.491 15.1789 12.2687L14.5706 11.3969C5.90144 17.4311 3.76543 29.3505 9.79965 38.0196 13.3759 43.1575 19.2401 46.2199 25.5 46.2188Z" transform="matrix(1 0 0 1.01961 34 619)"/><path d="M24.9688 3.71875 26.0312 3.71875 26.0312 27.0938 24.9688 27.0938Z" transform="matrix(1 0 0 1.01961 34 619)"/></g></svg>