<svg width="51" height="52" xmlns="http://www.w3.org/2000/svg" xmlns:xlink="http://www.w3.org/1999/xlink" xml:space="preserve" overflow="hidden"><defs><clipPath id="clip0"><rect x="34" y="145" width="51" height="52"/></clipPath></defs><g clip-path="url(#clip0)" transform="translate(-34 -145)"><path d="M23.375 22.8438C28.0694 22.8438 31.875 19.0382 31.875 14.3438 31.875 9.64931 28.0694 5.84375 23.375 5.84375 18.6806 5.84375 14.875 9.64931 14.875 14.3438 14.875 19.0382 18.6806 22.8438 23.375 22.8438ZM23.375 6.90625C27.4826 6.90625 30.8125 10.2361 30.8125 14.3438 30.8125 18.4514 27.4826 21.7812 23.375 21.7812 19.2674 21.7812 15.9375 18.4514 15.9375 14.3438 15.9416 10.2378 19.2691 6.91034 23.375 6.90625Z" transform="matrix(1 0 0 1.01961 34 145)"/><path d="M34.0558 28.5249C34.6195 28.3637 35.197 28.2551 35.7808 28.2003 34.0462 27.2764 32.2153 26.546 30.3211 26.0222 28.0703 25.3304 25.7297 24.9754 23.375 24.9688 21.0254 25.0084 18.6916 25.3615 16.4353 26.0185 13.491 26.8814 10.714 28.236 8.22163 30.0252 7.07938 30.9208 6.40114 32.2831 6.375 33.7344L6.375 41.9688 7.4375 41.9688 7.4375 33.7344C7.46109 32.6142 7.98501 31.5634 8.8655 30.8704 11.2505 29.1628 13.9065 27.8697 16.7216 27.0454 18.8845 26.4131 21.122 26.0721 23.375 26.0312 25.6285 26.0378 27.8686 26.378 30.0225 27.0406 31.4036 27.4296 32.7521 27.9258 34.0558 28.5249Z" transform="matrix(1 0 0 1.01961 34 145)"/><path d="M36.6562 29.75C32.2552 29.75 28.6875 33.3177 28.6875 37.7188 28.6875 42.1198 32.2552 45.6875 36.6562 45.6875 41.0573 45.6875 44.625 42.1198 44.625 37.7188 44.62 33.3198 41.0552 29.755 36.6562 29.75ZM36.6562 44.625C32.842 44.625 29.75 41.533 29.75 37.7188 29.75 33.9045 32.842 30.8125 36.6562 30.8125 40.4705 30.8125 43.5625 33.9045 43.5625 37.7188 43.5581 41.5312 40.4687 44.6206 36.6562 44.625Z" transform="matrix(1 0 0 1.01961 34 145)"/><path d="M37.1875 34 36.125 34 36.125 37.1875 32.9375 37.1875 32.9375 38.25 36.125 38.25 36.125 41.4375 37.1875 41.4375 37.1875 38.25 40.375 38.25 40.375 37.1875 37.1875 37.1875 37.1875 34Z" transform="matrix(1 0 0 1.01961 34 145)"/></g></svg>