<svg width="52" height="52" xmlns="http://www.w3.org/2000/svg" xmlns:xlink="http://www.w3.org/1999/xlink" xml:space="preserve" overflow="hidden"><defs><clipPath id="clip0"><rect x="31" y="208" width="52" height="52"/></clipPath></defs><g clip-path="url(#clip0)" transform="translate(-31 -208)"><path d="M44 229.669C46.6924 229.669 48.875 227.487 48.875 224.794 48.875 222.102 46.6924 219.919 44 219.919 41.3076 219.919 39.125 222.102 39.125 224.794 39.125 227.487 41.3076 229.669 44 229.669ZM44 221C46.0941 221 47.7917 222.698 47.7917 224.792 47.7917 226.886 46.0941 228.583 44 228.583 41.9059 228.583 40.2083 226.886 40.2083 224.792 40.211 222.699 41.9071 221.003 44 221Z"/><path d="M70 229.669C72.6924 229.669 74.875 227.487 74.875 224.794 74.875 222.102 72.6924 219.919 70 219.919 67.3076 219.919 65.125 222.102 65.125 224.794 65.125 227.487 67.3076 229.669 70 229.669ZM70 221C72.0941 221 73.7917 222.698 73.7917 224.792 73.7917 226.886 72.0941 228.583 70 228.583 67.9059 228.583 66.2083 226.886 66.2083 224.792 66.211 222.699 67.9071 221.003 70 221Z"/><path d="M78.6125 233.723C77.2319 232.647 75.6337 231.883 73.9287 231.486 72.6523 231.104 71.3315 230.892 70 230.853 68.6693 230.854 67.3472 231.067 66.0832 231.483 65.1845 231.716 64.3143 232.047 63.4886 232.471 63.4754 232.917 63.4158 233.36 63.311 233.793 64.2742 233.233 65.3088 232.805 66.3865 232.522 67.5529 232.139 68.7723 231.941 70 231.936 71.2383 231.976 72.4662 232.176 73.653 232.532 75.2133 232.891 76.6761 233.587 77.9387 234.571L77.9852 234.606C78.4308 234.927 78.6864 235.45 78.6667 235.999L78.6667 240.061 79.75 240.061 79.75 235.999C79.7698 235.099 79.3441 234.247 78.6125 233.723Z"/><path d="M50.6663 233.709C50.5677 233.281 50.5132 232.844 50.5038 232.405 49.6772 232.015 48.8143 231.706 47.9276 231.484 46.6515 231.103 45.3311 230.891 44 230.853 42.6693 230.854 41.3472 231.067 40.0832 231.483 38.3878 231.945 36.79 232.71 35.3669 233.741 34.6661 234.28 34.2552 235.114 34.2543 235.999L34.2543 240.061 35.3377 240.061 35.3377 235.999C35.3387 235.452 35.5922 234.937 36.0245 234.602 37.3426 233.653 38.8209 232.948 40.3887 232.522 41.5544 232.139 42.773 231.942 44 231.936 45.2383 231.976 46.4662 232.176 47.653 232.532 48.7049 232.79 49.7181 233.186 50.6663 233.709Z"/><path d="M65.6125 241.204C64.232 240.127 62.6338 239.364 60.9287 238.967 59.6523 238.585 58.3315 238.373 57 238.333 55.6697 238.335 54.3479 238.547 53.0843 238.963 51.3888 239.425 49.7909 240.19 48.368 241.221 47.665 241.76 47.2519 242.594 47.25 243.479L47.25 247.542 48.3333 247.542 48.3333 243.479C48.3343 242.932 48.5881 242.417 49.0207 242.083 50.3385 241.133 51.8167 240.428 53.3844 240.003 54.5515 239.619 55.7716 239.422 57 239.417 58.2385 239.456 59.4666 239.657 60.6535 240.012 62.2138 240.371 63.6765 241.067 64.9387 242.051L64.9853 242.086C65.4309 242.407 65.6865 242.93 65.6667 243.479L65.6667 247.542 66.75 247.542 66.75 243.479C66.7696 242.58 66.344 241.728 65.6125 241.204Z"/><path d="M57 237.15C59.6924 237.15 61.875 234.967 61.875 232.275 61.875 229.582 59.6924 227.4 57 227.4 54.3076 227.4 52.125 229.582 52.125 232.275 52.125 234.967 54.3076 237.15 57 237.15ZM57 228.483C59.0941 228.483 60.7917 230.181 60.7917 232.275 60.7917 234.369 59.0941 236.066 57 236.066 54.9059 236.066 53.2083 234.369 53.2083 232.275 53.2099 230.181 54.9061 228.483 57 228.48Z"/></g></svg>